<?xml version="1.0" encoding="UTF-8" standalone="no"?>
<svg
   xmlns:dc="http://purl.org/dc/elements/1.1/"
   xmlns:cc="http://creativecommons.org/ns#"
   xmlns:rdf="http://www.w3.org/1999/02/22-rdf-syntax-ns#"
   xmlns:svg="http://www.w3.org/2000/svg"
   xmlns="http://www.w3.org/2000/svg"
   xmlns:sodipodi="http://sodipodi.sourceforge.net/DTD/sodipodi-0.dtd"
   xmlns:inkscape="http://www.inkscape.org/namespaces/inkscape"
   height="501.47366"
   width="651.30127"
   inkscape:version="1.0 (4035a4fb49, 2020-05-01)"
   sodipodi:docname="loginGraphic.svg"
   xml:space="preserve"
   viewBox="0 0 651.30126 501.47366"
   y="0px"
   x="0px"
   id="Layer_1"
   version="1.1"><metadata
   id="metadata1439"><rdf:RDF><cc:Work
       rdf:about=""><dc:format>image/svg+xml</dc:format><dc:type
         rdf:resource="http://purl.org/dc/dcmitype/StillImage" /><dc:title></dc:title></cc:Work></rdf:RDF></metadata><defs
   id="defs1437" /><sodipodi:namedview
   showborder="false"
   fit-margin-bottom="0"
   fit-margin-right="0"
   fit-margin-left="0"
   fit-margin-top="0"
   inkscape:current-layer="Layer_1"
   inkscape:window-maximized="1"
   inkscape:window-y="-9"
   inkscape:window-x="-9"
   inkscape:cy="393.42439"
   inkscape:cx="402.19995"
   inkscape:zoom="2.2675001"
   showgrid="false"
   id="namedview1435"
   inkscape:window-height="1001"
   inkscape:window-width="1920"
   inkscape:pageshadow="2"
   inkscape:pageopacity="0"
   guidetolerance="10"
   gridtolerance="10"
   objecttolerance="10"
   borderopacity="1"
   bordercolor="#666666"
   pagecolor="#ffffff" />
<style
   id="style1137"
   type="text/css">
	.st0{fill:none;stroke:#601B23;stroke-width:6;stroke-linecap:round;stroke-linejoin:round;stroke-miterlimit:10;}
	.st1{fill:#E36535;}
	.st2{fill:#F4A045;}
	.st3{fill:#554D84;}
	.st4{fill:#FFFFFF;}
	.st5{fill:#601B23;}
	.st6{fill:#C11A4D;}
	.st7{fill:#CF264D;}
	.st8{opacity:0.72;fill:#A5143A;}
	.st9{opacity:0.23;fill:#F4A15D;}
	.st10{opacity:0.32;fill:#F4A15D;}
	.st11{opacity:0.37;fill:#A5143A;}
	.st12{fill:none;stroke:#601B23;stroke-width:4;stroke-linecap:round;stroke-linejoin:round;stroke-miterlimit:10;}
	.st13{fill:#4E8280;}
	.st14{opacity:0.32;}
	.st15{fill:#F4A15D;}
	.st16{fill:#37605D;}
	.st17{opacity:0.72;fill:#A5143A;stroke:#A5143A;stroke-width:6;stroke-linecap:round;stroke-linejoin:round;stroke-miterlimit:10;}
	.st18{fill:#ABCFD8;}
	.st19{opacity:0.93;fill:#E2F0F2;}
	.st20{fill:#BC1D4E;}
	.st21{opacity:0.74;fill:#A5143A;}
	.st22{opacity:0.53;}
	.st23{opacity:0.41;fill:#FFFFFF;}
</style>
<path
   d="m 319.67187,328.71596 c -4.71385,0.60178 -8.4749,7.22123 -9.17695,12.6873 -0.2006,1.60471 -0.3009,3.15927 -0.3009,4.764 0,5.21532 1.10325,10.1799 3.10914,15.24479 2.00589,4.96459 5.01474,10.02948 8.62536,12.93802 3.66074,-2.90854 6.61944,-7.97343 8.62534,-12.93802 2.00588,-5.06489 3.10914,-10.02947 3.10914,-15.24479 0,-1.60473 -0.10034,-3.15929 -0.30088,-4.764 -0.70207,-5.51621 -4.46313,-12.08552 -9.17698,-12.6873 -1.45427,-0.15044 -3.00884,-0.15044 -4.51327,0 z"
   class="st0"
   id="XMLID_29_" />
<path
   style="stroke-width:0.501473"
   d="m 319.67187,328.71596 c -4.71385,0.60178 -8.4749,7.22123 -9.17695,12.6873 -0.2006,1.60471 -0.3009,3.15927 -0.3009,4.764 0,5.21532 1.10325,10.1799 3.10914,15.24479 2.00589,4.96459 5.01474,10.02948 8.62536,12.93802 3.66074,-2.90854 6.61944,-7.97343 8.62534,-12.93802 2.00588,-5.06489 3.10914,-10.02947 3.10914,-15.24479 0,-1.60473 -0.10034,-3.15929 -0.30088,-4.764 -0.70207,-5.51621 -4.46313,-12.08552 -9.17698,-12.6873 -1.45427,-0.15044 -3.00884,-0.15044 -4.51327,0 z"
   class="st1"
   id="XMLID_35_" />
<path
   style="stroke-width:0.501473"
   d="m 342.99041,360.15837 c 0,9.32741 -1.95575,18.25364 -5.56636,27.33032 -0.10033,0.30088 -0.25074,0.60176 -0.40119,0.9528 -3.61061,8.62534 -8.77578,17.25069 -15.04421,22.31557 -6.469,-5.21532 -11.73448,-14.1917 -15.39523,-23.06779 -0.0502,-0.0502 -0.0502,-0.10033 -0.10033,-0.20058 -3.61061,-9.07668 -5.56636,-18.00291 -5.56636,-27.33032 0,-2.85841 0.20059,-5.66665 0.55163,-8.57521 1.20354,-9.72858 7.82298,-21.46306 16.0973,-22.71674 0.10033,0 0.20059,-0.0502 0.30088,-0.0502 2.60766,-0.30088 5.26547,-0.30088 7.87314,-0.0502 0.10033,0 0.25074,0 0.35103,0.0502 8.42477,1.05309 15.19465,12.93803 16.3982,22.7669 0.30088,2.90856 0.50147,5.7168 0.50147,8.5752 z"
   class="st2"
   id="XMLID_178_" />
<path
   d="m 342.99041,360.15837 c 0,9.32741 -1.95575,18.25364 -5.56636,27.33032 -0.10033,0.30088 -0.25074,0.60176 -0.40119,0.9528 -3.61061,8.62534 -8.77578,17.25069 -15.04421,22.31557 -6.469,-5.21532 -11.73448,-14.1917 -15.39523,-23.06779 -0.0502,-0.0502 -0.0502,-0.10033 -0.10033,-0.20058 -3.61061,-9.07668 -5.56636,-18.00291 -5.56636,-27.33032 0,-2.85841 0.20059,-5.66665 0.55163,-8.57521 1.20354,-9.72858 7.82298,-21.46306 16.0973,-22.71674 0.10033,0 0.20059,-0.0502 0.30088,-0.0502 2.60766,-0.30088 5.26547,-0.30088 7.87314,-0.0502 0.10033,0 0.25074,0 0.35103,0.0502 8.42477,1.05309 15.19465,12.93803 16.3982,22.7669 0.30088,2.90856 0.50147,5.7168 0.50147,8.5752 z"
   class="st0"
   id="XMLID_177_" />
<rect
   y="0"
   x="73.899651"
   style="fill:none;fill-opacity:1;stroke-width:0.501473"
   height="501.47366"
   width="501.47366"
   class="st3"
   id="XMLID_14_" />
<path
   style="stroke-width:0.571555"
   d="m 651.30121,411.81016 c -9.90176,2.25663 -17.97951,7.82299 -22.01839,15.0442 -7.81717,-2.15633 -16.28579,-3.35987 -25.08011,-3.35987 -26.05728,0 -48.98767,10.33036 -62.27687,25.92619 -6.90516,-2.50736 -14.59207,-3.86134 -22.73496,-3.86134 -3.58288,0 -7.03547,0.25073 -10.35776,0.80235 0,-0.25073 0,-0.50147 0,-0.80235 0,-12.78759 -11.72577,-23.46897 -27.29497,-26.02649 -5.99318,-15.79642 -24.8847,-27.38046 -47.35909,-27.38046 -18.69609,0 -34.98188,8.02358 -43.32021,19.80821 -5.79772,-4.16224 -13.54978,-6.7699 -22.08352,-6.7699 -4.88575,0 -9.51091,0.85251 -13.68006,2.30678 -5.08117,-6.06783 -9.57605,-12.43655 -13.4195,-19.1563 -9.5109,-16.54862 -14.78749,-35.00285 -14.78749,-54.35974 0,-1.75516 0.0652,-3.46017 0.13034,-5.21533 1.10744,-22.41587 9.25033,-43.42762 22.86524,-61.78156 h -56.34883 c 13.61493,18.35394 21.75783,39.41584 22.86525,61.83172 0.0652,1.705 0.13033,3.41001 0.13033,5.11503 0,19.056 -5.14632,37.25948 -14.39664,53.70783 -6.05832,10.73153 -13.81034,20.761 -23.12581,29.83768 -7.88233,-7.52211 -19.93381,-12.28611 -33.41845,-12.28611 -13.54978,0 -25.60126,4.81416 -33.48358,12.33626 -6.31889,-2.85841 -13.61493,-4.51327 -21.49725,-4.51327 -12.63777,0 -24.03782,4.31268 -31.78986,11.08257 -11.4652,-13.08847 -30.87785,-21.71381 -52.89624,-21.71381 -35.177319,0 -63.710013,21.96455 -63.710013,49.04413 0,0.15044 0,0.30088 0,0.45132 C 18.370364,461.20531 1.6285735,479.75983 0,501.47364 H 153.73785 468.9656 651.3013 Z"
   class="st4"
   id="XMLID_62_" />

<path
   style="stroke-width:0.501473"
   d="m 261.45079,252.14093 -16.34805,6.36872 v -31.04122 l 50.19752,-39.16509 v 58.72257 l -12.13567,6.36872 c -6.469,-3.41002 -14.34214,-4.11209 -21.7138,-1.2537 z"
   class="st6"
   id="XMLID_79_" />
<path
   style="stroke-width:0.501473"
   d="m 239.78713,266.63353 c -5.11504,-7.42181 -8.07373,-16.1976 -8.07373,-25.57516 0,-11.88493 4.66371,-22.7669 12.43654,-31.14151 7.77284,8.37461 12.48669,19.25658 12.53684,31.14151 0,9.42771 -2.95869,18.15335 -8.02358,25.57516 z"
   class="st7"
   id="XMLID_19_" />
<path
   style="stroke-width:0.501473"
   d="m 245.10274,258.50965 16.24776,-6.31856 c 0.20057,-4.31267 -0.10034,-8.72564 -0.90266,-13.13861 -1.20355,-6.61946 -3.46018,-12.83773 -6.56931,-18.45423 l -8.77579,6.87018 z"
   class="st8"
   id="XMLID_83_" />
<polygon
   transform="matrix(0.50147367,0,0,0.50147367,73.899639,-1.1312012e-5)"
   points="345.6,513.9 345.6,470.9 441.6,396.1 441.6,375.5 341.4,453.5 341.4,515.5 "
   class="st9"
   id="XMLID_63_" />
<path
   style="stroke-width:0.501473"
   d="m 275.34161,250.73681 c 2.7581,0.45133 5.36576,1.35399 7.82298,2.65782 l 12.13567,-6.36872 v -58.72257 l -21.1622,16.49848 c -1.05308,6.36872 -1.55456,13.03831 -1.55456,19.9085 0.0502,9.07669 1.00295,17.85247 2.75811,26.02649 z"
   class="st8"
   id="XMLID_69_" />
<path
   d="m 261.45079,252.14093 -16.34805,6.36872 v -31.04122 l 50.19752,-39.16509 v 58.72257 l -12.13567,6.36872 c -6.469,-3.41002 -14.34214,-4.11209 -21.7138,-1.2537 z"
   class="st0"
   id="XMLID_72_" />
<path
   style="stroke-width:0.501473"
   d="m 239.78713,266.63353 c -5.11504,-7.42181 -8.07373,-16.1976 -8.07373,-25.57516 0,-11.88493 4.66371,-22.7669 12.43654,-31.14151 7.77284,8.37461 12.48669,19.25658 12.53684,31.14151 0,9.42771 -2.95869,18.15335 -8.02358,25.57516 z"
   class="st7"
   id="XMLID_34_" />
<path
   style="stroke-width:0.501473"
   d="m 243.39774,209.91686 c 0.60176,0.65191 1.20353,1.35398 1.75515,2.05603 -5.21532,8.02358 -8.22417,17.4513 -8.27432,27.48076 0,9.92918 1.50442,19.20644 6.61946,27.23002 h -4.61356 c -5.06489,-7.4218 -8.02358,-16.19759 -8.02358,-25.57515 0.0502,-11.93508 4.764,-22.81705 12.53685,-31.19166 z"
   class="st9"
   id="XMLID_37_" />
<path
   style="stroke-width:0.501473"
   d="m 243.39774,209.91686 c 0.20058,0.20059 0.40117,0.45132 0.60176,0.70206 -5.86724,8.6755 -9.22712,18.85541 -9.27726,29.78753 0,9.47785 2.55751,18.4041 7.02063,26.27722 h -2.8584 c -5.06489,-7.4218 -8.02358,-16.19759 -8.02358,-25.57515 0.0502,-11.93508 4.764,-22.81705 12.53685,-31.19166 z"
   class="st10"
   id="XMLID_4_" />
<path
   style="stroke-width:0.501473"
   d="m 256.68678,241.05837 c 0,-11.88493 -4.71385,-22.71676 -12.53684,-31.14151 -0.60176,0.65191 -1.20354,1.35398 -1.75515,2.05603 5.21533,8.02358 8.22416,17.4513 8.27431,27.48076 0,9.92918 -2.90854,19.20644 -8.02358,27.23002 h 6.01768 c 5.06489,-7.47195 8.02358,-16.24774 8.02358,-25.6253 z"
   class="st11"
   id="XMLID_9_" />
<path
   style="stroke-width:0.501473"
   d="m 256.68678,241.05837 c 0,-11.88493 -4.71385,-22.71676 -12.53684,-31.14151 -0.20059,0.20059 -0.40118,0.45132 -0.60176,0.70206 5.86724,8.6755 9.22711,18.85541 9.27726,29.78753 0,9.47785 -2.55752,18.4041 -7.02063,26.27722 h 2.85839 c 5.06489,-7.47195 8.02358,-16.24774 8.02358,-25.6253 z"
   class="st8"
   id="XMLID_45_" />
<path
   style="stroke-width:0.501473"
   d="m 244.14994,209.91686 c -0.60176,0.65191 -1.20354,1.35398 -1.75515,2.05603 5.21533,8.02358 8.22416,17.4513 8.27431,27.48076 0,9.92918 -2.90854,19.20644 -8.02358,27.23002 h 6.01768 c 5.06489,-7.4218 8.02358,-16.19759 8.02358,-25.57515 -0.0502,-11.93508 -4.764,-22.81705 -12.53684,-31.19166 z"
   class="st11"
   id="XMLID_10_" />
<path
   style="stroke-width:0.501473"
   d="m 244.14994,209.91686 c -0.20059,0.20059 -0.40118,0.45132 -0.60176,0.70206 5.86724,8.6755 9.22711,18.85541 9.27726,29.78753 0,9.47785 -2.55752,18.4041 -7.02063,26.27722 h 2.85839 c 5.06489,-7.4218 8.02358,-16.19759 8.02358,-25.57515 -0.0502,-11.93508 -4.764,-22.81705 -12.53684,-31.19166 z"
   class="st8"
   id="XMLID_16_" />
<path
   style="stroke-width:0.501473"
   d="m 249.86674,218.94339 c -1.85545,-3.25958 -4.06193,-6.26843 -6.61946,-9.07669 -2.55751,2.75811 -4.76398,5.81711 -6.61944,9.07669 z"
   class="st5"
   id="XMLID_95_" />
<path
   d="m 239.78713,266.63353 c -5.11504,-7.42181 -8.07373,-16.1976 -8.07373,-25.57516 0,-11.88493 4.66371,-22.7669 12.43654,-31.14151 7.77284,8.37461 12.48669,19.25658 12.53684,31.14151 0,9.42771 -2.95869,18.15335 -8.02358,25.57516 z"
   class="st0"
   id="XMLID_28_" />
<path
   style="stroke-width:0.501473"
   d="m 304.92856,305.3473 c 0,0 -6.06784,1.30383 -14.79349,10.02947 -3.15927,3.15929 -8.12387,9.57814 -11.78463,14.44245 -1.50441,2.00588 -4.71385,1.00294 -4.76399,-1.50443 l -1.20354,-53.40695 c -0.25073,-1.50442 0.15044,-3.05898 1.10324,-4.21237 l 13.13862,-16.34805 z"
   class="st7"
   id="XMLID_31_" />
<path
   style="stroke-width:0.501473"
   d="m 273.48615,329.36788 v 0 c 2.85841,-0.40117 5.01475,-2.8584 5.06488,-5.76694 l 0.55163,-49.64589 c -0.25074,-1.50443 0.15044,-3.05899 1.10324,-4.21238 l 8.22417,-10.28021 -1.85546,-5.11504 -13.08846,16.2979 c -0.9528,1.20354 -1.35397,2.70795 -1.10324,4.21237 z"
   class="st10"
   id="XMLID_24_" />
<path
   style="stroke-width:0.501473"
   d="m 304.92856,305.3473 -18.30379,-50.99988 -7.27138,9.07667 c 3.91149,15.04421 10.07963,30.33917 18.40409,45.58396 4.41297,-3.05898 7.17108,-3.66075 7.17108,-3.66075 z"
   class="st8"
   id="XMLID_84_" />
<path
   d="m 304.92856,305.3473 c 0,0 -6.06784,1.30383 -14.79349,10.02947 -3.15927,3.15929 -8.12387,9.57814 -11.78463,14.44245 -1.50441,2.00588 -4.71385,1.00294 -4.76399,-1.50443 l -1.20354,-53.40695 c -0.25073,-1.50442 0.15044,-3.05898 1.10324,-4.21237 l 13.13862,-16.34805 z"
   class="st0"
   id="XMLID_21_" />
<line
   y2="260.01407"
   x2="251.52161"
   y1="260.01407"
   x1="235.02309"
   class="st12"
   id="XMLID_32_" />
<path
   style="stroke-width:0.501473"
   d="m 239.78713,266.63353 c -5.11504,-7.42181 -8.07373,-16.1976 -8.07373,-25.57516 0,-11.88493 4.66371,-22.7669 12.43654,-31.14151 7.77284,8.37461 12.48669,19.25658 12.53684,31.14151 0,9.42771 -2.95869,18.15335 -8.02358,25.57516 z"
   class="st7"
   id="XMLID_192_" />
<path
   style="stroke-width:0.501473"
   d="m 239.78713,266.63353 c -5.11504,-7.42181 -8.07373,-16.1976 -8.07373,-25.57516 0,-11.88493 4.66371,-22.7669 12.43654,-31.14151 7.77284,8.37461 12.48669,19.25658 12.53684,31.14151 0,9.42771 -2.95869,18.15335 -8.02358,25.57516 z"
   class="st7"
   id="XMLID_161_" />
<path
   style="stroke-width:0.501473"
   d="m 243.39774,209.91686 c 0.60176,0.65191 1.20353,1.35398 1.75515,2.05603 -5.21532,8.02358 -8.22417,17.4513 -8.27432,27.48076 0,9.92918 1.50442,19.20644 6.61946,27.23002 h -4.61356 c -5.06489,-7.4218 -8.02358,-16.19759 -8.02358,-25.57515 0.0502,-11.93508 4.764,-22.81705 12.53685,-31.19166 z"
   class="st9"
   id="XMLID_155_" />
<path
   style="stroke-width:0.501473"
   d="m 243.39774,209.91686 c 0.20058,0.20059 0.40117,0.45132 0.60176,0.70206 -5.86724,8.6755 -9.22712,18.85541 -9.27726,29.78753 0,9.47785 2.55751,18.4041 7.02063,26.27722 h -2.8584 c -5.06489,-7.4218 -8.02358,-16.19759 -8.02358,-25.57515 0.0502,-11.93508 4.764,-22.81705 12.53685,-31.19166 z"
   class="st10"
   id="XMLID_147_" />
<path
   style="stroke-width:0.501473"
   d="m 256.68678,241.05837 c 0,-11.88493 -4.71385,-22.71676 -12.53684,-31.14151 -0.60176,0.65191 -1.20354,1.35398 -1.75515,2.05603 5.21533,8.02358 8.22416,17.4513 8.27431,27.48076 0,9.92918 -2.90854,19.20644 -8.02358,27.23002 h 6.01768 c 5.06489,-7.47195 8.02358,-16.24774 8.02358,-25.6253 z"
   class="st11"
   id="XMLID_144_" />
<path
   style="stroke-width:0.501473"
   d="m 256.68678,241.05837 c 0,-11.88493 -4.71385,-22.71676 -12.53684,-31.14151 -0.20059,0.20059 -0.40118,0.45132 -0.60176,0.70206 5.86724,8.6755 9.22711,18.85541 9.27726,29.78753 0,9.47785 -2.55752,18.4041 -7.02063,26.27722 h 2.85839 c 5.06489,-7.47195 8.02358,-16.24774 8.02358,-25.6253 z"
   class="st8"
   id="XMLID_140_" />
<path
   style="stroke-width:0.501473"
   d="m 244.14994,209.91686 c -0.60176,0.65191 -1.20354,1.35398 -1.75515,2.05603 5.21533,8.02358 8.22416,17.4513 8.27431,27.48076 0,9.92918 -2.90854,19.20644 -8.02358,27.23002 h 6.01768 c 5.06489,-7.4218 8.02358,-16.19759 8.02358,-25.57515 -0.0502,-11.93508 -4.764,-22.81705 -12.53684,-31.19166 z"
   class="st11"
   id="XMLID_134_" />
<path
   style="stroke-width:0.501473"
   d="m 244.14994,209.91686 c -0.20059,0.20059 -0.40118,0.45132 -0.60176,0.70206 5.86724,8.6755 9.22711,18.85541 9.27726,29.78753 0,9.47785 -2.55752,18.4041 -7.02063,26.27722 h 2.85839 c 5.06489,-7.4218 8.02358,-16.19759 8.02358,-25.57515 -0.0502,-11.93508 -4.764,-22.81705 -12.53684,-31.19166 z"
   class="st8"
   id="XMLID_130_" />
<path
   style="stroke-width:0.501473"
   d="m 250.76939,218.94339 c -1.85544,-3.25958 -4.06193,-6.26843 -6.61945,-9.07669 -2.55751,2.75811 -4.764,5.81711 -6.61946,9.07669 z"
   class="st5"
   id="XMLID_67_" />
<path
   d="m 239.78713,266.63353 c -5.11504,-7.42181 -8.07373,-16.1976 -8.07373,-25.57516 0,-11.88493 4.66371,-22.7669 12.43654,-31.14151 7.77284,8.37461 12.48669,19.25658 12.53684,31.14151 0,9.42771 -2.95869,18.15335 -8.02358,25.57516 z"
   class="st0"
   id="XMLID_39_" />
<line
   y2="260.01407"
   x2="251.52161"
   y1="260.01407"
   x1="235.02309"
   class="st12"
   id="XMLID_12_" />
<path
   style="stroke-width:0.501473"
   d="m 379.54784,252.14093 16.34804,6.36872 v -31.04122 l -50.19752,-39.16509 v 58.72257 l 12.13567,6.36872 c 6.469,-3.41002 14.34214,-4.11209 21.71381,-1.2537 z"
   class="st6"
   id="XMLID_196_" />
<path
   style="stroke-width:0.501473"
   d="m 395.89588,258.50965 -16.24775,-6.31856 c -0.2006,-4.31267 0.10033,-8.72564 0.90266,-13.13861 1.20353,-6.61946 3.46015,-12.83773 6.56929,-18.45423 l 8.7758,6.87018 z"
   class="st8"
   id="XMLID_188_" />
<polygon
   transform="matrix(0.50147367,0,0,0.50147367,73.899639,-1.1312012e-5)"
   points="638,513.9 638,470.9 542,396.1 542,375.5 642.1,453.5 642.1,515.5 "
   class="st9"
   id="XMLID_181_" />
<path
   style="stroke-width:0.501473"
   d="m 365.65702,250.73681 c -2.75811,0.45133 -5.36577,1.35399 -7.82299,2.65782 l -12.13567,-6.36872 v -58.72257 l 21.16218,16.49848 c 1.05311,6.36872 1.55458,13.03831 1.55458,19.9085 0,9.07669 -0.9528,17.85247 -2.7581,26.02649 z"
   class="st8"
   id="XMLID_175_" />
<path
   d="m 379.54784,252.14093 16.34804,6.36872 v -31.04122 l -50.19752,-39.16509 v 58.72257 l 12.13567,6.36872 c 6.469,-3.41002 14.34214,-4.11209 21.71381,-1.2537 z"
   class="st0"
   id="XMLID_166_" />
<path
   style="stroke-width:0.501473"
   d="m 336.12022,305.3473 c 0,0 6.06783,1.30383 14.79347,10.02947 3.15929,3.15929 8.12387,9.57814 11.78463,14.44245 1.50442,2.00588 4.71385,1.00294 4.764,-1.50443 l 1.20353,-53.40695 c 0.25074,-1.50442 -0.15044,-3.05898 -1.10324,-4.21237 l -13.1386,-16.34805 z"
   class="st7"
   id="XMLID_59_" />
<path
   style="stroke-width:0.501473"
   d="m 367.51246,329.36788 v 0 c -2.85839,-0.40117 -5.01473,-2.8584 -5.06488,-5.76694 l -0.55162,-49.64589 c 0.25073,-1.50443 -0.15044,-3.05899 -1.10324,-4.21238 l -8.22417,-10.28021 1.85546,-5.11504 13.1386,16.34805 c 0.9528,1.20353 1.35398,2.70795 1.10324,4.21237 z"
   class="st8"
   id="XMLID_48_" />
<path
   style="stroke-width:0.501473"
   d="m 336.12022,305.3473 18.30379,-50.99988 7.27136,9.07667 c -3.91149,15.04421 -10.07962,30.33917 -18.40408,45.58396 -4.41297,-3.05898 -7.17107,-3.66075 -7.17107,-3.66075 z"
   class="st8"
   id="XMLID_47_" />
<path
   d="m 336.12022,305.3473 c 0,0 6.06783,1.30383 14.79347,10.02947 3.15929,3.15929 8.12387,9.57814 11.78463,14.44245 1.50442,2.00588 4.71385,1.00294 4.764,-1.50443 l 1.20353,-53.40695 c 0.25074,-1.50442 -0.15044,-3.05898 -1.10324,-4.21237 l -13.1386,-16.34805 z"
   class="st0"
   id="XMLID_33_" />
<path
   style="stroke-width:0.501473"
   d="m 335.86947,334.03159 c 0.55163,-5.96754 -0.25073,-11.58404 -10.28021,-26.37752 -1.65486,-2.35692 -5.61649,-2.35692 -7.27136,0 -10.02948,14.84363 -10.83183,20.46013 -10.28021,26.37752 0.10034,0.75221 1.45428,1.60471 2.30678,1.30383 5.76694,-2.95869 17.45129,-2.95869 23.21822,0 0.85251,0.30088 2.20649,-0.50147 2.30678,-1.30383 z"
   class="st13"
   id="XMLID_22_" />
<g
   transform="matrix(0.50147367,0,0,0.50147367,73.899639,-1.1312012e-5)"
   class="st14"
   id="XMLID_107_">
	<g
   id="XMLID_222_">
		<g
   id="XMLID_225_">
			<path
   d="m 477,666.1 c -1.1,-11.9 0.5,-23.1 20.5,-52.6 0.6,-0.9 1.4,-1.6 2.2,-2.1 -3.8,-2.5 -9.6,-1.8 -12.3,2.1 -20,29.6 -21.6,40.8 -20.5,52.6 0.2,1.5 2.9,3.2 4.6,2.6 1.7,-0.8 3.6,-1.6 5.6,-2.2 0,-0.1 -0.1,-0.2 -0.1,-0.4 z"
   class="st15"
   id="XMLID_226_" />
		</g>
		<g
   id="XMLID_223_">
			<path
   d="m 499.7,664.5 c 6.9,0.5 13.4,1.9 18.1,4.2 1.5,0.6 3.9,-0.8 4.5,-2.2 -6.6,-1.9 -14.8,-2.6 -22.6,-2 z"
   class="st15"
   id="XMLID_224_" />
		</g>
	</g>
</g>
<g
   transform="matrix(0.50147367,0,0,0.50147367,73.899639,-1.1312012e-5)"
   id="XMLID_46_">
	<g
   id="XMLID_168_">
		<g
   id="XMLID_169_">
			<path
   d="m 490.9,613.5 c -0.3,-0.4 -0.6,-0.7 -0.9,-1 3.7,-3.7 10.6,-3.3 13.6,1 20,29.6 21.6,40.8 20.5,52.6 -0.2,1.5 -2.9,3.2 -4.6,2.6 -2.3,-1.2 -5.1,-2.1 -8.1,-2.8 1.1,-11.8 -0.6,-23 -20.5,-52.4 z"
   class="st16"
   id="XMLID_170_" />
		</g>
	</g>
</g>
<path
   d="m 335.86947,334.03159 c 0.55163,-5.96754 -0.25073,-11.58404 -10.28021,-26.37752 -1.65486,-2.35692 -5.61649,-2.35692 -7.27136,0 -10.02948,14.84363 -10.83183,20.46013 -10.28021,26.37752 0.10034,0.75221 1.45428,1.60471 2.30678,1.30383 5.76694,-2.95869 17.45129,-2.95869 23.21822,0 0.85251,0.30088 2.20649,-0.50147 2.30678,-1.30383 z"
   class="st0"
   id="XMLID_17_" />
<path
   style="stroke-width:0.501473"
   d="m 333.26181,316.02868 c 23.61942,-38.66361 32.19461,-76.62518 26.879,-108.26816 -4.61356,-27.48076 -19.45718,-47.28896 -38.21229,-59.67536 -18.75513,12.3864 -33.59875,32.1946 -38.2123,59.67536 -5.31563,31.64298 3.30972,69.60455 26.87898,108.26816 z"
   class="st7"
   id="XMLID_15_" />
<path
   style="stroke-width:0.501473"
   d="m 301.66898,208.31214 c 3.00883,-24.8731 10.83182,-44.63116 21.36277,-59.42462 -0.35103,-0.25075 -0.75222,-0.50148 -1.10323,-0.75222 -18.75513,12.38639 -33.59875,32.19461 -38.2123,59.67537 -5.31563,31.64298 3.30972,69.60455 26.87898,108.26816 h 4.76401 C 302.27074,277.41522 297.85777,240.25601 301.66898,208.31214 Z"
   class="st9"
   id="XMLID_20_" />
<path
   style="stroke-width:0.501473"
   d="m 360.14081,207.76052 c -4.56341,-27.28017 -19.20645,-46.98808 -37.81112,-59.37448 3.46017,5.56636 7.87314,13.58994 11.58404,23.76985 6.7699,18.50438 7.5221,33.74918 7.92329,43.32733 1.8053,43.07658 -14.69318,90.71658 -18.15335,100.59561 h 9.57814 c 23.61942,-38.71376 32.19461,-76.67533 26.879,-108.31831 z"
   class="st11"
   id="XMLID_54_" />
<path
   style="stroke-width:0.501473"
   d="m 360.14081,207.76052 c -4.61356,-27.48076 -19.45718,-47.28896 -38.21229,-59.67536 -0.50148,0.30088 -0.95282,0.65192 -1.45429,0.9528 7.12093,5.56636 12.53685,11.53389 16.64894,17.25069 36.90846,51.3509 1.50441,128.22682 -3.35988,138.40674 -0.2006,-6.92035 -1.10324,-15.49555 -3.66075,-25.0737 -1.65487,-6.11797 -3.66077,-11.48375 -5.66667,-16.04716 -0.7522,16.99996 -1.50442,33.99992 -2.25662,50.99988 h 6.21827 c -0.15044,0.50147 -0.30088,0.9528 -0.50147,1.45427 h 5.26547 c 23.71971,-38.66361 32.2949,-76.62518 26.97929,-108.26816 z"
   class="st8"
   id="XMLID_5_" />
<path
   style="stroke-width:0.501473"
   d="m 290.03478,216.48616 c 0.70207,-8.02358 3.30974,-34.1002 19.40703,-55.51313 2.55751,-3.35988 6.36872,-7.92329 6.06784,-8.17402 -0.45133,-0.40118 -9.27726,7.57224 -15.54569,16.04716 -7.87314,10.58109 -13.64008,23.56925 -16.1976,38.91435 -5.31562,31.64298 3.30973,69.60455 26.879,108.26816 h 2.05603 c -6.469,-12.88787 -10.73153,-24.52206 -13.64007,-33.69902 -1.90561,-6.16814 -5.26548,-17.10026 -7.37167,-31.74329 -1.35398,-9.82888 -2.85841,-20.35982 -1.65487,-34.10021 z"
   class="st10"
   id="XMLID_6_" />
<circle
   r="13.640085"
   cy="213.17645"
   cx="324.63647"
   class="st17"
   id="XMLID_13_" />
<path
   d="m 333.26181,316.02868 c 23.61942,-38.66361 32.19461,-76.62518 26.879,-108.26816 -4.61356,-27.48076 -19.45718,-47.28896 -38.21229,-59.67536 -18.75513,12.3864 -33.59875,32.1946 -38.2123,59.67536 -5.31563,31.64298 3.30972,69.60455 26.87898,108.26816 z"
   class="st0"
   id="XMLID_11_" />
<circle
   style="stroke-width:0.501473"
   r="13.640085"
   cy="211.07025"
   cx="321.92853"
   class="st18"
   id="XMLID_25_" />
<circle
   style="stroke-width:0.501473"
   r="8.2241678"
   cy="210.31802"
   cx="320.07306"
   class="st19"
   id="XMLID_26_" />
<circle
   r="13.640085"
   cy="211.07025"
   cx="321.92853"
   class="st0"
   id="XMLID_1_" />
<path
   style="stroke-width:0.501473"
   d="m 302.67193,165.386 c 12.48668,-4.31268 26.17691,-4.31268 38.66361,0.0502 -5.66666,-6.87019 -12.23595,-12.63713 -19.35689,-17.35098 -7.12092,4.71385 -13.69023,10.48079 -19.30672,17.30084 z"
   class="st5"
   id="XMLID_44_" />
<path
   d="m 302.67193,165.386 c 12.48668,-4.31268 26.17691,-4.31268 38.66361,0.0502 -5.66666,-6.87019 -12.23595,-12.63713 -19.35689,-17.35098 -7.12092,4.71385 -13.69023,10.48079 -19.30672,17.30084 z"
   class="st0"
   id="XMLID_23_" />
<path
   style="stroke-width:0.501473"
   d="m 321.92852,339.49765 v 0 c 0.55161,0 1.00293,-0.60177 1.05308,-1.40412 l 3.76105,-61.38038 c 0.40119,-6.31856 -1.60471,-12.1858 -4.5634,-13.58994 -0.2006,-0.10033 -0.40118,-0.10033 -0.55163,0 -2.95868,1.35398 -4.96458,7.22122 -4.56341,13.58994 l 3.76105,61.38038 c 0.10033,0.80235 0.60178,1.40412 1.10326,1.40412 z"
   class="st20"
   id="XMLID_18_" />
<path
   style="stroke-width:0.501473"
   d="m 321.92852,339.49765 v 0 c 0.55161,0 1.00293,-0.60177 1.05308,-1.40412 l 3.76105,-61.38038 c 0.40119,-6.31856 -1.60471,-12.1858 -4.5634,-13.58994 -0.2006,-0.10033 -0.40118,-0.10033 -0.55163,0 -2.95868,1.35398 -4.96458,7.22122 -4.56341,13.58994 l 3.76105,61.38038 c 0.10033,0.80235 0.60178,1.40412 1.10326,1.40412 z"
   class="st21"
   id="XMLID_2_" />
<g
   transform="matrix(0.50147367,0,0,0.50147367,73.899639,-1.1312012e-5)"
   class="st22"
   id="XMLID_8_">
	<g
   id="XMLID_199_">
		<g
   id="XMLID_202_">
			<path
   d="m 494.1,524.7 c -5.9,2.7 -9.9,14.4 -9.1,27.1 l 7.5,122.4 c 0.1,1.3 0.7,2.4 1.5,2.7 V 524.7 Z"
   class="st15"
   id="XMLID_203_" />
		</g>
		<g
   id="XMLID_200_">
			<path
   d="m 494.1,524.7 h 1.1 c -0.4,-0.2 -0.8,-0.2 -1.1,0 z"
   class="st15"
   id="XMLID_201_" />
		</g>
	</g>
</g>
<path
   d="m 321.92852,339.49765 v 0 c 0.55161,0 1.00293,-0.60177 1.05308,-1.40412 l 3.76105,-61.38038 c 0.40119,-6.31856 -1.60471,-12.1858 -4.5634,-13.58994 -0.2006,-0.10033 -0.40118,-0.10033 -0.55163,0 -2.95868,1.35398 -4.96458,7.22122 -4.56341,13.58994 l 3.76105,61.38038 c 0.10033,0.80235 0.60178,1.40412 1.10326,1.40412 z"
   class="st0"
   id="XMLID_27_" />
<path
   style="stroke-width:0.501473"
   d="m 395.54485,266.63353 c -5.11504,-7.42181 -8.07373,-16.1976 -8.07373,-25.57516 0,-11.88493 4.66371,-22.7669 12.43654,-31.14151 7.77284,8.37461 12.48671,19.25658 12.53684,31.14151 0,9.42771 -2.95869,18.15335 -8.02358,25.57516 z"
   class="st7"
   id="XMLID_255_" />
<path
   style="stroke-width:0.501473"
   d="m 395.54485,266.63353 c -5.11504,-7.42181 -8.07373,-16.1976 -8.07373,-25.57516 0,-11.88493 4.66371,-22.7669 12.43654,-31.14151 7.77284,8.37461 12.48671,19.25658 12.53684,31.14151 0,9.42771 -2.95869,18.15335 -8.02358,25.57516 z"
   class="st7"
   id="XMLID_249_" />
<path
   style="stroke-width:0.501473"
   d="m 399.2056,209.91686 c 0.60178,0.65191 1.20354,1.35398 1.75517,2.05603 -5.21533,8.02358 -8.22418,17.4513 -8.27433,27.48076 0,9.92918 1.50442,19.20644 6.61946,27.23002 h -4.61356 c -5.06489,-7.4218 -8.02358,-16.19759 -8.02358,-25.57515 0,-11.93508 4.71385,-22.81705 12.53684,-31.19166 z"
   class="st9"
   id="XMLID_245_" />
<path
   style="stroke-width:0.501473"
   d="m 399.2056,209.91686 c 0.20059,0.20059 0.40118,0.45132 0.60178,0.70206 -5.86725,8.6755 -9.22713,18.85541 -9.27728,29.78753 0,9.47785 2.55753,18.4041 7.02063,26.27722 h -2.85839 c -5.06489,-7.4218 -8.02358,-16.19759 -8.02358,-25.57515 0,-11.93508 4.71385,-22.81705 12.53684,-31.19166 z"
   class="st10"
   id="XMLID_242_" />
<path
   style="stroke-width:0.501473"
   d="m 412.4445,241.05837 c 0,-11.88493 -4.71385,-22.71676 -12.53684,-31.14151 -0.60176,0.65191 -1.20354,1.35398 -1.75515,2.05603 5.21533,8.02358 8.22416,17.4513 8.27431,27.48076 0,9.92918 -2.90854,19.20644 -8.02358,27.23002 h 6.01768 c 5.06489,-7.47195 8.02358,-16.24774 8.02358,-25.6253 z"
   class="st11"
   id="XMLID_239_" />
<path
   style="stroke-width:0.501473"
   d="m 412.4445,241.05837 c 0,-11.88493 -4.71385,-22.71676 -12.53684,-31.14151 -0.20059,0.20059 -0.40118,0.45132 -0.60176,0.70206 5.86724,8.6755 9.22711,18.85541 9.27726,29.78753 0,9.47785 -2.55751,18.4041 -7.02063,26.27722 h 2.85839 c 5.06489,-7.47195 8.02358,-16.24774 8.02358,-25.6253 z"
   class="st8"
   id="XMLID_236_" />
<path
   style="stroke-width:0.501473"
   d="m 399.90766,209.91686 c -0.60176,0.65191 -1.20354,1.35398 -1.75515,2.05603 5.21533,8.02358 8.22416,17.4513 8.27431,27.48076 0,9.92918 -2.90854,19.20644 -8.02358,27.23002 h 6.01768 c 5.06489,-7.4218 8.02358,-16.19759 8.02358,-25.57515 0,-11.93508 -4.71385,-22.81705 -12.53684,-31.19166 z"
   class="st11"
   id="XMLID_233_" />
<path
   style="stroke-width:0.501473"
   d="m 399.90766,209.91686 c -0.20059,0.20059 -0.40118,0.45132 -0.60176,0.70206 5.86724,8.6755 9.22711,18.85541 9.27726,29.78753 0,9.47785 -2.55751,18.4041 -7.02063,26.27722 h 2.85839 c 5.06489,-7.4218 8.02358,-16.19759 8.02358,-25.57515 0,-11.93508 -4.71385,-22.81705 -12.53684,-31.19166 z"
   class="st8"
   id="XMLID_230_" />
<path
   style="stroke-width:0.501473"
   d="m 406.57726,218.94339 c -1.85544,-3.25958 -4.06193,-6.26843 -6.61944,-9.07669 -2.55753,2.75811 -4.76401,5.81711 -6.61946,9.07669 z"
   class="st5"
   id="XMLID_227_" />
<path
   d="m 395.54485,266.63353 c -5.11504,-7.42181 -8.07373,-16.1976 -8.07373,-25.57516 0,-11.88493 4.66371,-22.7669 12.43654,-31.14151 7.77284,8.37461 12.48671,19.25658 12.53684,31.14151 0,9.42771 -2.95869,18.15335 -8.02358,25.57516 z"
   class="st0"
   id="XMLID_219_" />
<line
   y2="260.01407"
   x2="408.23212"
   y1="260.01407"
   x1="391.73364"
   class="st12"
   id="XMLID_210_" />
<path
   style="stroke-width:0.501473"
   d="m 306.48312,163.68098 c 0,0 3.41002,-5.36576 14.99406,-14.39229 -5.36577,7.27137 -6.41886,11.83478 -6.76989,12.18582 -3.41002,0.65191 -8.22417,2.20647 -8.22417,2.20647 z"
   class="st23"
   id="XMLID_228_" />
</svg>
